<svg xmlns="http://www.w3.org/2000/svg" viewBox="0 0 520 400" role="img" aria-labelledby="hero-title-svg"><title id="hero-title-svg">A person pointing to the work while an AI assistant carries it. Each carries a small mark of the other's color.</title>
<ellipse cx="268" cy="358" rx="210" ry="14" style="fill:var(--line)"/>
<circle cx="440" cy="84" r="9" style="fill:var(--warm)"/>
<circle cx="478" cy="128" r="6" style="fill:var(--accent)"/>
<circle cx="72" cy="70" r="6" style="fill:var(--accent)"/>
<circle cx="104" cy="44" r="4" style="fill:var(--warm)"/>
<circle cx="146" cy="118" r="34" style="fill:var(--warm)"/>
<rect x="102" y="164" width="88" height="156" rx="42" style="fill:var(--warm)"/>
<path d="M186 214 L246 196" stroke-width="18" stroke-linecap="round" fill="none" style="stroke:var(--warm)"/>
<rect x="304" y="140" width="126" height="180" rx="36" style="fill:var(--paper-3);stroke:var(--accent);stroke-width:8"/>
<circle cx="346" cy="196" r="7" style="fill:var(--accent)"/>
<circle cx="388" cy="196" r="7" style="fill:var(--accent)"/>
<path d="M346 232 Q367 250 388 232" stroke-width="6" stroke-linecap="round" fill="none" style="stroke:var(--accent)"/>
<path d="M312 262 L272 246" stroke-width="16" stroke-linecap="round" fill="none" style="stroke:var(--accent)"/>
<g transform="rotate(-7 250 262)">
<rect x="198" y="236" width="104" height="72" rx="12" style="fill:var(--paper-3);stroke:var(--ink);stroke-width:5"/>
<rect x="214" y="254" width="58" height="8" rx="4" style="fill:var(--ink-3)"/>
<rect x="214" y="272" width="72" height="8" rx="4" style="fill:var(--ink-3)"/>
</g>
<g transform="rotate(5 260 236)">
<rect x="212" y="206" width="104" height="72" rx="12" style="fill:var(--paper-3);stroke:var(--ink);stroke-width:5"/>
<rect x="228" y="224" width="62" height="8" rx="4" style="fill:var(--ink-3)"/>
<rect x="228" y="242" width="40" height="8" rx="4" style="fill:var(--ink-3)"/>
<circle cx="292" cy="254" r="12" style="fill:var(--ok)"/>
<path d="M285 254 l5 5 l9 -10" stroke="#fff" stroke-width="3" fill="none" stroke-linecap="round" stroke-linejoin="round"/>
</g>
</svg>
